<svg width="1800" height="1080" viewBox="0 0 1800 1080" fill="none" xmlns="http://www.w3.org/2000/svg">
  <defs>
    <linearGradient id="sky" x1="900" y1="0" x2="900" y2="1080" gradientUnits="userSpaceOnUse">
      <stop offset="0" stop-color="#F3F1ED"/>
      <stop offset="0.52" stop-color="#DDD9D4"/>
      <stop offset="1" stop-color="#BFBAB4"/>
    </linearGradient>
    <linearGradient id="fog" x1="900" y1="300" x2="900" y2="960" gradientUnits="userSpaceOnUse">
      <stop stop-color="rgba(255,255,255,0)"/>
      <stop offset="1" stop-color="#D9D4CE"/>
    </linearGradient>
    <filter id="grain" x="-20%" y="-20%" width="140%" height="140%">
      <feTurbulence type="fractalNoise" baseFrequency="0.8" numOctaves="2" stitchTiles="stitch" result="noise"/>
      <feColorMatrix in="noise" type="saturate" values="0"/>
      <feComponentTransfer>
        <feFuncA type="table" tableValues="0 0.07"/>
      </feComponentTransfer>
    </filter>
  </defs>

  <rect width="1800" height="1080" fill="url(#sky)"/>
  <rect width="1800" height="1080" fill="#000000" filter="url(#grain)"/>

  <ellipse cx="1210" cy="650" rx="148" ry="162" fill="#A29D98"/>
  <rect x="1176" y="418" width="68" height="120" fill="#9A9590"/>
  <rect x="1194" y="358" width="30" height="72" fill="#8C8782"/>
  <rect x="1205" y="298" width="8" height="72" fill="#7C7772"/>
  <ellipse cx="1210" cy="296" rx="24" ry="26" fill="#8A857F"/>

  <rect x="690" y="300" width="120" height="480" fill="#9A9590"/>
  <rect x="662" y="274" width="176" height="58" fill="#8B8681"/>
  <rect x="705" y="220" width="90" height="64" fill="#84807A"/>
  <path d="M728 186H772L786 222H714L728 186Z" fill="#7D7873"/>

  <g opacity="0.92">
    <path d="M186 426H214V820H186V426Z" fill="#3E3A37"/>
    <ellipse cx="200" cy="398" rx="30" ry="34" fill="#34312E"/>
    <ellipse cx="200" cy="398" rx="18" ry="22" fill="#5E5A56"/>
    <path d="M318 478H340V842H318V478Z" fill="#494542"/>
    <ellipse cx="329" cy="448" rx="26" ry="30" fill="#383532"/>
    <ellipse cx="329" cy="448" rx="15" ry="18" fill="#64605C"/>
    <path d="M410 532H428V854H410V532Z" fill="#514D49"/>
    <ellipse cx="419" cy="506" rx="22" ry="26" fill="#413D3A"/>
    <ellipse cx="419" cy="506" rx="12" ry="15" fill="#6E6964"/>
    <path d="M478 584H494V862H478V584Z" fill="#58534F"/>
    <ellipse cx="486" cy="562" rx="18" ry="22" fill="#494440"/>
    <ellipse cx="486" cy="562" rx="10" ry="13" fill="#77726D"/>
    <path d="M1434 520H1454V856H1434V520Z" fill="#4B4744"/>
    <ellipse cx="1444" cy="492" rx="24" ry="28" fill="#3A3734"/>
    <ellipse cx="1444" cy="492" rx="14" ry="17" fill="#67625D"/>
    <path d="M1652 452H1674V848H1652V452Z" fill="#403C39"/>
    <ellipse cx="1663" cy="424" rx="28" ry="32" fill="#302D2B"/>
    <ellipse cx="1663" cy="424" rx="16" ry="19" fill="#5C5854"/>
  </g>

  <path d="M0 834C182 792 308 782 446 788C604 796 706 830 846 832C1004 834 1098 794 1234 792C1400 790 1524 846 1800 810V1080H0V834Z" fill="#9A9590"/>
  <path d="M0 894C208 852 350 840 514 850C654 860 774 902 920 904C1082 906 1174 856 1330 854C1492 852 1600 892 1800 874V1080H0V894Z" fill="#7E7A75"/>
  <path d="M0 930C226 906 332 904 484 910C642 916 742 960 922 962C1096 964 1182 926 1332 922C1500 918 1624 950 1800 944V1080H0V930Z" fill="#66625E"/>

  <rect y="690" width="1800" height="390" fill="url(#fog)" opacity="0.8"/>
</svg>
