<svg width="960" height="720" viewBox="0 0 960 720" fill="none" xmlns="http://www.w3.org/2000/svg">
  <rect width="960" height="720" fill="#E7E0D6"/>
  <rect x="70" y="56" width="820" height="608" rx="14" fill="#FCFAF7"/>
  <rect x="112" y="106" width="132" height="38" rx="19" fill="#E8DBC8"/>
  <rect x="132" y="122" width="92" height="7" rx="3.5" fill="#8B6A43"/>

  <rect x="112" y="184" width="696" height="92" rx="16" fill="#F2ECE5" stroke="#E3D5C1"/>
  <rect x="144" y="220" width="424" height="12" rx="6" fill="#4C443E"/>
  <rect x="144" y="246" width="352" height="10" rx="5" fill="#938A80"/>

  <rect x="112" y="314" width="696" height="138" rx="16" fill="#F7F2EC" stroke="#E3D5C1"/>
  <rect x="144" y="352" width="486" height="12" rx="6" fill="#4C443E"/>
  <rect x="144" y="380" width="438" height="12" rx="6" fill="#7B746C"/>
  <rect x="144" y="408" width="464" height="12" rx="6" fill="#7B746C"/>

  <rect x="112" y="490" width="696" height="116" rx="16" fill="#FBF8F3" stroke="#E3D5C1"/>
  <rect x="144" y="528" width="260" height="14" rx="7" fill="#8B6A43"/>
  <rect x="424" y="528" width="196" height="14" rx="7" fill="#4C443E"/>
  <rect x="144" y="556" width="332" height="12" rx="6" fill="#7B746C"/>

  <rect x="702" y="204" width="106" height="380" rx="18" fill="#F4ECE2"/>
  <rect x="732" y="242" width="46" height="46" rx="14" fill="#E5D5C0"/>
  <rect x="722" y="326" width="66" height="10" rx="5" fill="#B69A74"/>
  <rect x="722" y="352" width="66" height="10" rx="5" fill="#B69A74"/>
  <rect x="722" y="378" width="66" height="10" rx="5" fill="#B69A74"/>
  <rect x="722" y="444" width="66" height="94" rx="12" fill="#EADCC9"/>
</svg>
