<svg width="960" height="720" viewBox="0 0 960 720" fill="none" xmlns="http://www.w3.org/2000/svg">
  <rect width="960" height="720" fill="#D8D3CD"/>
  <rect x="70" y="56" width="820" height="608" rx="14" fill="#F4F1ED"/>
  <rect x="112" y="112" width="370" height="16" rx="8" fill="#8C8781" opacity="0.45"/>
  <rect x="112" y="154" width="736" height="14" rx="7" fill="#B2ADA8"/>
  <rect x="112" y="182" width="704" height="14" rx="7" fill="#B9B4AE"/>
  <rect x="112" y="210" width="724" height="14" rx="7" fill="#BBB5B0"/>
  <rect x="112" y="238" width="668" height="14" rx="7" fill="#B7B1AB"/>

  <rect x="112" y="304" width="736" height="14" rx="7" fill="#B4AFA9"/>
  <rect x="112" y="332" width="698" height="14" rx="7" fill="#BBB5AF"/>
  <rect x="112" y="360" width="714" height="14" rx="7" fill="#B8B2AC"/>
  <rect x="112" y="388" width="682" height="14" rx="7" fill="#B4AEA8"/>

  <rect x="112" y="454" width="736" height="14" rx="7" fill="#B3ADA7"/>
  <rect x="112" y="482" width="715" height="14" rx="7" fill="#B8B2AC"/>
  <rect x="112" y="510" width="703" height="14" rx="7" fill="#BCB6B0"/>
  <rect x="112" y="538" width="684" height="14" rx="7" fill="#B8B2AC"/>

  <rect x="112" y="602" width="236" height="12" rx="6" fill="#8E8881" opacity="0.32"/>
</svg>
